<svg id="Layer_1" data-name="Layer 1" xmlns="http://www.w3.org/2000/svg" viewBox="0 0 352.1 398.9"><defs><style>.cls-1{fill:#f3f1f1;}</style></defs><title>gearAsset 1-black-01</title><g id="Layer_2" data-name="Layer 2"><g id="Layer_1-2" data-name="Layer 1-2"><path class="cls-1" d="M223.3,75.5c30,1.1,55.8,9.9,78.1,27.7,33,26.4,50.2,60.9,50.5,103.3.3,55.2.1,110.4.1,165.7V379h-5.4c-19,0-38-.1-57,.1a22.47,22.47,0,0,0-8.1,1.6c-22.5,9.1-46,13.9-70.1,16.4a348.46,348.46,0,0,1-72.2-.1c-23.5-2.5-46.6-7.2-68.6-16.3a22.06,22.06,0,0,0-7.7-1.6c-19-.1-38-.1-57-.1H0V207C.1,144.3,43.6,90.7,105,78.4c12.1-2.4,24.8-2.2,37.2-2.5,17.6-.4,35.3-.2,53,0,3.1,0,4.7-.9,5.9-3.8a88.83,88.83,0,0,1,19.6-29.2c2.1-2,2.4-3.7,1.7-6.5-3.5-16,5.6-31.3,20.8-35.3a29.54,29.54,0,0,1,36,19.7c3.4,11.1,1,21.1-7.1,29.4S253.9,61,242.8,57.8c-3.5-1-5.6-.5-7.6,2.2C231.5,64.8,227.8,69.6,223.3,75.5Zm96.4,270.6V340c0-43.2.1-86.5-.1-129.7A137.75,137.75,0,0,0,318,190c-7-46.6-47.8-81.9-95-82.1q-47.25-.15-94.4,0a85.18,85.18,0,0,0-12.4.9c-50,8.3-84.1,48.4-84.1,99.1V346.1Z"/><path class="cls-1" d="M230.4,260.6c-22.1,0-39.3-17.1-39.3-39.1a39,39,0,0,1,38.9-39h.1c22-.1,39.6,17.2,39.6,38.9C269.7,243.3,252.5,260.5,230.4,260.6Z"/><path class="cls-1" d="M118.4,260.6a38.86,38.86,0,0,1-39-38.7v-.8c.2-21.7,17.8-38.8,39.9-38.7a39.05,39.05,0,0,1,38.8,39.2h0A39,39,0,0,1,118.4,260.6Z"/></g></g></svg>